<svg xmlns="http://www.w3.org/2000/svg" viewBox="0 -12 187 80"><g fill="#E96956" fill-rule="evenodd"><path d="M23.967 26.448c-.107-.59-.054-1.179-.268-1.768-.16-.643-.322-1.285-.911-1.66-.054-.055-.107-.161-.16-.215-.483-.536-1.018-1.018-1.769-1.232a5.303 5.303 0 0 0-2.25 0c-.268.054-.535.214-.803.054.214-.643.59-1.18 1.018-1.769.054-.053.107-.053.107-.053.214-.107.375-.268.482-.482.322-.59.643-1.125 1.179-1.553a.41.41 0 0 0 .107-.269c.16-.214.268-.482.375-.696.643-1.286 1.018-2.679 1.393-4.017.053-.161 0-.27 0-.43-.054-.535-.107-1.071 0-1.606.053-.376 0-.697-.215-1.019a1.883 1.883 0 0 1-.321-.75 1.662 1.662 0 0 0-.321-.696c-.536-.642-1.179-1.018-1.93-1.286-.481-.214-.963-.321-1.446-.214a20.764 20.764 0 0 0-5.089 1.929c0-.054-.054-.161-.054-.268-.053-.536-.535-.697-.91-.857-.268-.16-.59-.054-.91-.107-.322-.108-.59.107-.805.32-.482.644-.91 1.34-1.124 2.144a22.925 22.925 0 0 1-.75 2.035c-.215.215-.429.375-.643.59-1.286 1.178-2.84 2.09-3.965 3.429-.268.321-.482.589-.696.964-.214.535.267 1.286.857 1.286.697-.108 1.446-.161 1.982-.804.16-.215.376-.375.59-.59.107-.107.214-.267.482-.267-.054.268-.161.535-.268.75-.375.696-.59 1.393-.858 2.089-.535 1.607-.964 3.268-1.553 4.822-.482 1.393-.91 2.785-1.232 4.232a54.85 54.85 0 0 1-.75 3.16 19.217 19.217 0 0 0-.803 3.375c-.322 1.822-.75 3.644-1.126 5.465-.16.643-.375 1.178-.428 1.875-.107.696-.054 1.393-.16 2.089-.054.214 0 .375.16.535.428.43 1.018.43 1.5.698.054 0 .214-.054.321.053.107.107.268.053.375 0 .321-.16.75-.053.964-.483h.161c.214.108.268-.107.322-.268.267-.642.536-1.338.803-1.981.268-.59.482-1.125.643-1.714.428-1.34.965-2.733 1.447-4.072.214-.643.428-1.232.535-1.929l.16-.482c.162-.375.269-.696.376-1.178.16-.911.428-1.875 1.179-2.572.375-.375.696-.803 1.178-1.072a3.403 3.403 0 0 0 1.071-1.07c.269-.269.536-.536.858-.75.16-.107.268-.268.428-.43.214-.32.482-.696.75-.964 1.072-1.071 2.304-1.928 3.536-2.785.322-.215.696-.429 1.018-.429.321 0 .59 0 .857-.107.375-.053.75 0 1.125.053.536.054.75.483.536 1.018a1.22 1.22 0 0 1-.322.643c-1.232 1.447-2.41 2.946-3.643 4.393-.964 1.072-1.982 2.036-2.893 3.107-.642.75-1.446 1.393-2.089 2.196-.643.858-1.393 1.608-2.035 2.518-.59.805-1.233 1.661-1.876 2.519-.589.803-1.178 1.606-1.714 2.41-.428.643-.643 1.286-.643 2.036.054.536.375.964.75 1.34.161.106.268.16.376.267.214.268.482.268.696.053a.664.664 0 0 1 .75-.16c.16.107.321.054.428 0 .214-.107.375-.214.483-.322.857-.803 1.5-1.607 2.25-2.464.16-.16.374-.268.482-.482.589-.857 1.285-1.554 2.196-2.09.16-.107.321-.267.482-.375.322-.321.483-.696.804-.964.482-.374.91-.803 1.232-1.393.214-.321.429-.696.75-.857.643-.321 1.018-.91 1.5-1.446.107-.107.16-.268.268-.374.268-.322.59-.644.91-.912.376-.267.643-.642.965-.964.643-.643 1.232-1.286 1.714-1.983.536-.75 1.018-1.499 1.232-2.41.054-.375.215-.75.375-1.125.161-.375.215-.804.215-1.232m-7.661-8.25c-.643.857-1.179 1.768-1.875 2.625-1.071 1.339-2.143 2.678-3.16 4.071-.322.43-.644.75-.965 1.072 0 0-.054 0-.054-.054-.053-.267 0-.589.107-.857.482-1.125.643-2.303.911-3.536.16-.75.429-1.5.59-2.25.32-1.232.803-2.518 1.124-3.857.322-1.125.59-2.197.857-3.375.054-.268.215-.375.375-.482.43-.214.858-.429 1.18-.696.106-.107.213-.107.267-.161.375-.107.75-.322 1.072-.536.375-.375.964-.268 1.392-.482.054-.053.161 0 .268.053.214.054.429.108.643.108.482.053.482.107.482.589 0 .696-.16 1.393-.428 2.036-.643 2.036-1.5 3.964-2.786 5.732M70.253 15.894c.375.108 1.018.054 1.178-.107.107-.214.482.054.643-.107.215-.215.536-.429.911-.429.536 0 .803-.535 1.072-.803l.321-.161c.107-.054.268-.107.322-.215.106-.213.267-.427.375-.588.374-.483.428-1.072.696-1.554.107-.268.053-.59.214-.75.054-.322-.053-.536-.321-.75-.322-.268-.75-.375-1.179-.536-.321-.107-.697-.107-1.071-.053-.643.107-1.071.321-1.607.535-.269.054-.536.268-.536.429-.054.268-.268.428-.482.59-.215.16-.375.32-.59.481a3.69 3.69 0 0 0-.964 1.286c-.107.375-.053.75-.214 1.071-.268.643.214 1.34 1.232 1.661"/><path d="M141.446 24.358c.161-.427.268-.857.429-1.232.16-.535.429-1.018.59-1.5.16-.535.374-.964.535-1.5.107-.267.268-.535.375-.803.107-.483.268-.965.429-1.447.214-.696.481-1.393.696-2.143.214-.589.054-1.07-.375-1.5-.321-.375-.75-.588-1.125-.857-.214-.16-.482-.268-.321-.589h-.054c-.054.107 0 .214-.107.321-.214-.267-.59-.267-.91-.482h-.055c-.268 0-.535-.053-.803-.053-.107 0-.16 0-.214.053a5.66 5.66 0 0 0-.59.482c-.428.59-.75 1.233-1.232 1.769-.428.482-.803 1.017-1.178 1.553-.429.696-.858 1.34-1.286 2.036-.536.75-1.018 1.553-1.5 2.357a118.863 118.863 0 0 0-1.822 3.696c-.053.108-.053.215-.16.268v-.16c.107-.536.16-1.018.268-1.5.053-.43.107-.91.214-1.34.107-.321.16-.696.214-1.071.054-.644.16-1.286.268-1.928 0-.161.053-.27.053-.376.055-.75.268-1.392.375-2.089.108-.59.268-1.125.268-1.714 0-.643.108-1.286-.16-1.93v-.106c-.16-.857-.643-1.393-1.447-1.715-.214-.053-.375-.107-.536-.267-.106-.054-.16-.107-.32-.107-.376 0-.805.053-1.233 0-.054 0-.161 0-.161.053-.375.214-.803.321-.964.75l-.16.16c-.43.269-.697.697-.965 1.126-.643.964-1.232 1.929-1.821 2.893-.054.053-.054.107-.161.107v-.268c.16-.643.267-1.286.482-1.929.107-.428.268-.857.322-1.285.107-.536.16-1.072.375-1.554.107-.32.107-.59.107-.91a.69.69 0 0 0-.215-.536c-.107-.161-.267-.268-.428-.376-.161-.053-.268-.16-.376-.321a2.822 2.822 0 0 0-.642-.75c0-.053-.107-.107-.107-.107-.215.107-.268-.053-.375-.16-.215-.215-.536-.215-.804-.322-.214.16-.428.054-.643.054-.214 0-.429.053-.589.16-.214.16-.429.268-.59.482-.214.215-.428.482-.696.697-.481.428-1.018.857-1.446 1.339-.268.215-.482.536-.75.804-.054.053-.16.16-.107.321 0 .053 0 .161.053.161.16-.054.215 0 .215.16 0 .054.107 0 .16.108-.053.107-.214.107-.214.214.054.054.107.054.16.107-.053-.214.054-.161.215-.268-.054.215-.214.107-.214.268 0 .16.16.108.268.16 0-.374.267-.535.535-.696-.107.215-.268.375-.428.536-.054.054-.107.108-.107.16v.055c.16 0 .267-.055.428 0l.536-.268c.107-.322.428-.429.643-.644.053-.053.16-.107.32-.107-.213.322-.052.75-.481.964-.054 0-.054.108 0 .108.16.053.107.16.053.268-.428 1.393-.642 2.892-1.125 4.285-.214.643-.374 1.286-.535 1.875-.322 1.018-.429 1.983-.696 3-.483 1.715-.965 3.537-1.233 5.304-.32 1.607-.696 3.16-.964 4.768-.014.071-.032.142-.047.213a.37.37 0 0 0-.25.044c-.227.109-.452.178-.678.286-.634.289-1.266.538-1.898.786-.769.322-1.449.648-2.127.935-.315.104-.632.248-.902.355-.273.146-.592.33-.909.474-.36.143-.814.36-1.222.54-.182.11-1.272 1.545-1.452 1.616.053-1.186 1.408-3.794 1.41-4.744l.417-1.764c.053-.196.608-3.69.75-6.187v-.002c.341-3.098.048-3.83-.053-4.549v-.003c0-.16.053-.375.16-.59.054-.053 0-.106 0-.16-.053-.268-.107-.482-.267-.697-.214-.214-.429-.428-.59-.642a.945.945 0 0 1-.214-.268c-.16-.214-.375-.429-.643-.536-.053-.053-.107-.053-.107-.107h-.054l-.053-.054c-.214-.321-.429-.482-.75-.696-.536-.429-1.179-.482-1.875-.536-.965 0-1.821.322-2.625.75-1.768.911-3.16 2.304-4.447 3.857-.696.804-1.285 1.768-1.875 2.733-1.232 2.089-2.196 4.339-2.732 6.75-.161.645-.262 1.32-.324 1.981-.184.154-.334.338-.48.483-.749.75-1.553 1.446-2.302 2.196-.376.322-.75.697-1.126 1.072-.375.321-.803.643-1.232.964a14.32 14.32 0 0 1-1.232.697c-.107.053-.268.053-.375.053-.16.053-.268 0-.321-.107v-.054c-.054-.32-.161-.643-.108-.964.054-.75.16-1.5.375-2.25.322-1.178.804-2.304 1.179-3.482.214-.697.643-1.34.91-2.036.376-.75.75-1.446 1.233-2.143.429-.589.964-1.178 1.34-1.821.32-.482.535-.964.91-1.446.59-.75.643-1.661.16-2.518-.482-.911-1.392-1.232-2.357-1.286a1.992 1.992 0 0 0-1.232.267 10.532 10.532 0 0 0-2.839 2.25c-.75.857-1.554 1.608-2.25 2.465-1.072 1.286-2.196 2.464-3.16 3.804a3.43 3.43 0 0 1-.858.91c0-.214.107-.321.161-.482.107-.375.375-.697.429-1.071.107-.483.214-.91.32-1.34.215-.75.376-1.5.697-2.196.322-.803.59-1.607.59-2.518.053-.375 0-.75 0-1.125 0-.59-.215-1.018-.697-1.232-.268-.107-.375-.268-.482-.536 0-.107-.053-.214-.107-.374-.214.053-.214.32-.429.374.054-.268.268-.374.322-.589-.161-.054-.214 0-.322.054-.107.214-.268.107-.375 0-.375-.375-.643-.375-.964-.054-.107.107-.16.215-.268.268-.214.16-.375.268-.536.429-.823 1.853-1.807 4.05-2.733 6.115-.745.77-1.514 1.515-2.249 2.296h-.053a72.546 72.546 0 0 1-2.947 2.785c-.91.857-1.821 1.66-2.732 2.518-.053.054-.053.107-.108.107-.856.696-1.874 1.393-2.196 1.821-.053 0-.053.054-.106.054-.054.054-.054.107-.108.054-.107-.054-.107-.108-.053-.161.214-.429.267-.91.375-1.34.268-1.017.642-1.982.857-2.946 0-.054.053-.16.053-.214.536-1.554 1.286-3.054 1.715-4.661.053-.375.214-.696.32-1.072a5.762 5.762 0 0 1 .483-1.446c.268-.536.429-1.125.59-1.66.16-.59-.108-1.34-.483-1.554-.375-.214-.75-.429-1.178-.643-.375-.214-.857-.16-1.286-.107-.375.107-.536.375-.697.643a1.62 1.62 0 0 0-.214.428c-.428.804-.857 1.554-1.232 2.357-.857 1.554-1.5 3.107-2.143 4.768-.321.858-.589 1.768-.91 2.625-.268.75-.483 1.5-.643 2.25-.017.084-.025.164-.038.246-.163.082-.323.166-.498.236-.536.269-1.018.536-1.5.804-.643.375-1.286.643-1.929 1.018-.321.161-.642.375-1.018.482-.267.161-.536.268-.803.375-2.518 1.125-3.107-1.071-4.715-2.303-.267-.215-.535-.429-.803-.697-.321-.107-.268-.214 0-.428.107-.054.16-.054.214-.161-.053-.108-.214.107-.268-.054.054-.107.161-.16.215-.214.267-.054.375-.428.857-.215.107-.052.107-.107.107-.107.214-.16.375-.375.643-.535-.16-.054-.16-.161-.054-.215.108-.053.161-.053.161.054.429-.161.803-.428 1.178-.643.269-.214.483-.429.965-.429.053 0 .16-.106.268-.16.482-.375.964-.697 1.5-1.179a34.365 34.365 0 0 1 3-2.357c.053-.054.107-.16.214-.107.107.107.16.053.16-.107-.106-.107-.053-.16 0-.214a1.27 1.27 0 0 1 .804-.483c.107-.053.215-.107.215-.214-.054-.16.053-.16.214-.214.053 0 .214-.053.107-.214-.054-.054-.16.053-.268 0 .214-.268.482-.429.75-.643.215-.214.536-.483 1.018-.483.054 0 .16 0 .054-.106-.054-.108 0-.161.053-.268.268-.215.429-.536.589-.857.215-.59.43-1.126.107-1.715-.16-.428-.482-.75-.91-1.071-.215-.215-.429-.429-.75-.483-.643-.053-1.286-.16-1.982-.053-.322.053-.59.107-.911.214-.804.161-1.553.268-2.25.643-.482.268-1.018.482-1.5.75-.214.107-.535.214-.75.375-.964.59-1.875 1.126-2.786 1.767-.321.161-.964.537-1.393.858.108-.697.322-1.393.483-1.875.321-.696.428-1.232.589-1.821.16-.482.429-.965.59-1.447.267-.696.481-1.446.856-2.035.482-.75.59-1.608.964-2.411.43-.804.643-1.714 1.018-2.572.215-.589.375-1.178.75-1.714.268-.321.376-.75.482-1.178.161-.43.322-.911.536-1.286.376-.75.215-1.34-.536-1.875-.321-.322-.642-.483-1.017-.75-.161-.108-.321-.108-.536 0-.59.267-1.232.428-1.34 1.178 0 0-.053 0-.053.054-.375.804-.696 1.66-1.071 2.518-.429 1.018-.804 2.036-1.447 3.053-.321.59-.59 1.286-.857 1.875-.429.911-.697 1.822-1.072 2.68l-1.124 3.052a23.113 23.113 0 0 0-1.34 3.804c-.268.857-.482 1.715-.857 2.518-.375.91-.696 1.821-.857 2.786-.107.857-.322 1.66-.535 2.464a2.102 2.102 0 0 0-.119.3c-.588.833-1.137 1.684-1.757 2.486-.857 1.125-1.714 2.25-2.625 3.322a3.29 3.29 0 0 1-1.285 1.017c-.107-.16-.054-.321-.054-.482.107-.75.268-1.5.375-2.303.16-.858.268-1.715.428-2.572.054-.429.161-.803.268-1.232.161-1.018.483-1.982.804-2.947.16-.482.322-.964.375-1.5.053-.375.16-.643.268-.964.16-.536.268-1.125.428-1.66v-.323c0-.428-.16-.749-.321-1.124-.107-.214-.161-.536-.322-.75-.428-.428-.857-.857-1.446-1.018-.482-.16-.803-.268-1.125.214-.107.107-.214.107-.322 0a9.24 9.24 0 0 1-.803-.696c-.375-.482-1.018-.482-1.5-.804-.375.054-.696.054-1.018.268l-1.767 1.125a7.654 7.654 0 0 0-1.876 1.607c-.75.911-1.392 1.822-2.089 2.732-.321.43-.59.857-.91 1.34-.537.857-.965 1.821-1.5 2.678-.215.483-.483.91-.643 1.393-.43 1.232-.804 2.464-.965 3.804-.053.589-.16 1.232-.107 1.821 0 1.018.429 1.822.91 2.678.054.108.108.216.215.269.696.589 1.392 1.285 2.41 1.178.054 0 .162.054.215.054.375.053.696.16 1.072.053.589-.16 1.232-.16 1.767-.589.054-.053.107-.053.161-.053.536-.215.964-.59 1.393-.965.429-.374.803-.803 1.125-1.34.161-.213.322-.374.536-.588.106.321.214.589.428.857.16.214.215.375.268.59.054.481.375.803.697 1.124.267.322.643.536 1.017.75l.804.321c.375.054.75 0 1.071-.16.215-.161.429-.322.643-.429.214-.053.321-.16.482-.267.375-.215.697-.483 1.072-.75.428-.322.91-.59 1.071-1.233 0-.053.054-.107.107-.107.268-.268.375-.59.536-.857l.046-.073c-.125.36-.257.656-.42.984-.322.75-.537 1.553-.59 2.304-.107.535-.054 1.017.428 1.338.269.16.375.375.536.59.054-.054.161-.268.268-.268a.68.68 0 0 0 .482-.214c.054-.054.214-.054.161.107-.054.054.053.16.161.215.107.052.214 0 .267-.108.054-.107.054-.161.215-.107.214.16.375 0 .482 0 .375 0 .268-.215.375-.322 0-.053 0-.107.107-.107v.375c.16-.107.054-.321.214-.375.215.161 0 .43.054.696.214-.213.214-.321.214-.482.161-.589.322-1.178.643-1.714.643-1.285.964-2.678 1.393-3.964.16-.428.214-.858.429-1.286 0-.214.16-.214.375-.107.267.214.535.375.696.696.107.161.268.376.375.483.536.482 1.071.91 1.554 1.392.535.483 1.07.965 1.821 1.232.482.16 1.018.322 1.447.43.053 0 .16-.054.214-.054.535 0 1.07-.107 1.553-.161.965-.16 1.768-.429 2.518-.964.643-.483 1.286-.911 1.982-1.34.375-.267.804-.535 1.18-.803.163-.124.337-.23.51-.334.14.72.422 1.398.828 2.048.161.268.375.536.482.803.107.215.268.375.428.536.269.108.269-.106.537 0 .214.16.482.322.75.483.214.107.535.107.857.107.053-.054.16-.054.267-.107.269 0 .59 0 .912-.054.106-.054.267-.054.428-.16.429-.43 1.018-.697 1.447-1.18.375-.428.75-.482 1.124-.856.054-.054.697-.697.911-1.072.376-.482.75-.91 1.125-1.339.375-.482.804-.911 1.232-1.34.268-.32.59-.589.804-.964.114-.2.244-.383.38-.56l-.059.132c-.214.75-.429 1.5-.75 2.196-.268.697-.589 1.447-.75 2.197-.375 1.392-.696 2.839-.053 4.285.107.161.107.375.375.536 0-.268.214-.375.375-.59.053.215.16.322.214.43.054.053-.054.106.054.16.214-.268.321-.268.589.054.107-.054.053-.16.214-.16.054.213.268.374.429.588.16.268.482.268.803.107.268-.107.59-.107.75-.375 0 0 .107 0 .161.054.054.053.107 0 .16-.054.483-.482.858-1.017 1.18-1.553.374-.536.803-1.072.963-1.715.054-.32.43-.428.483-.75.536-1.553 1.875-3.16 2.946-4.446.429-.536.911-.964 1.393-1.447.857-.803 1.607-1.714 2.357-2.678.322-.429.75-.804 1.179-1.233-.536 1.287-1.072 2.572-1.5 3.858-.375 1.072-.75 2.09-1.018 3.214-.214.857-.322 1.768-.375 2.679-.054.75-.054 1.5.268 2.25.053.107.107.214.214.321.054.054.054.108.107.16.215.215.322.483.482.697.215.215.43.375.643.59.375.375.965.321 1.447.375.268 0 .642 0 .91-.16.75-.43 1.5-.805 2.143-1.394.268-.321.59-.59.857-.857l2.465-2.464.97-1.052c.117.546.367 1.058.584 1.534.32.59.856.91 1.553.965.107.052.214.052.321.106.322.107.643.16 1.018.268.643.108 1.34-.16 1.929-.535l.106-.108c.269-.482.75-.75 1.126-1.071.429-.429.804-.804 1.071-1.286.214-.59.643-1.071.857-1.607l.16-.16c.108-.108.162-.162.215-.268l.161-.322c.214-.268.375-.643.59-.964.106-.108.16-.268.267-.375.268-.483.429-.911.75-1.34.069-.205.623-.388.733-.567-.03.562.233 1.646-.165 3.996-.112.663-.752 3.142-.826 3.812-.084.868-.494 2.061-.684 2.955-.54 2.541-1.672 2.524-2.866 3.206-3.36 1.92-3.952 1.942-6.362 3.128-1.459.718-2.873 1.69-4.83 3.284-1.795 1.463-3.798 3.513-4.412 4.357-.8 1.033-1.134 1.533-1.716 2.656-.434.772-.872 1.55-1.171 2.363-.265.72-.75 1.908-.87 2.71-.182 1.224-.239 2.005.092 3.645.29 1.44.814 1.69 1.193 2.141.336.412.855.712 1.465.938.262.092.481.141.747.153.397.057.88.158 1.324.139.223-.03.445-.02.622-.012.842-.001 1.454-.157 2.33-.529.498-.211 3.17-1.48 3.715-1.773.273-.146.54-.487.952-.746.414-.337 2.998-2.82 3.89-3.93.611-.764 3.713-5.236 4.915-9.009.131-.413 1.378-3.06 1.64-3.959.208-.664.853-2.232 1.016-2.898.01-.198.35-1.256.643-2.245.392-1.322.548-1.845 1.652-3.55.278-.43 1.856-1.716 2.311-1.973.411-.259.823-.557 1.32-.772.228-.11.406-.14.589-.251.136-.073.227-.109.317-.144l.01-.237c.367-.261.688-.485 1.054-.745.59-.29 1.137-.622 1.68-.875.183-.11.367-.261.593-.37.361-.142.767-.283 1.128-.424.125-.057.24-.11.35-.168-.17.69-.351 1.38-.49 2.07-.16.91-.535 1.82-.535 2.84 0 .427.054.802.376 1.124.16.107.267.268.374.481.108.108.16.161.268.215.16 0 .321.054.429.161.268.268.428.321.643.053.106-.16.214-.214.321-.053.053.053.107.053.16 0 0-.107 0-.215.054-.268.053-.108.214-.054.268-.16.107-.269.321-.322.59-.376.321-.107.321-.107.267-.428-.053-.215-.053-.268.16-.322.162-.053.162-.107.108-.267 0-.054-.053-.108 0-.16.214-.055.16-.27.268-.376.054.106-.054.16.054.321 0-.375.214-.59.214-.91.053-.108.107-.269.16-.376.108-.107.161-.268.268-.375.215-.589.429-1.232.643-1.821.375-.91.643-1.876.911-2.786.268-.91.536-1.821.75-2.732.107-.375.214-.803.321-1.179.054-.428.214-.803.376-1.178.053-.215.16-.375.214-.536.214-.75.535-1.393.857-2.089.268-.696.59-1.393.857-2.09.268-.696.482-1.5.91-2.142.322-.482.537-1.018.858-1.554.157-.315.316-.682.524-1.049.035-.022.065-.038.065-.076.268-.536.643-.964.965-1.5.053-.053.053-.16.16-.107 0 .054.054.16 0 .268-.215.964-.321 1.982-.482 3a47.06 47.06 0 0 1-.643 3.804c-.16.964-.375 1.929-.482 2.893-.107.803-.214 1.607-.321 2.464-.054.482-.107.964-.107 1.446 0 .75-.054 1.5 0 2.25 0 .91.053 1.822.428 2.732.107.16.16.375.268.59.268.32.803.482 1.179.267.053-.053.106-.107.16-.053.268.16.482.107.643-.107.214-.161.428-.161.643-.215.053.054.053.054 0 .107 0 .054-.054.215 0 .268.107.054.214-.053.321-.16.107-.376.322-.697.429-1.018.107-.215 0-.482.268-.536.053-.214.16-.375.107-.589-.054-.054 0-.16.054-.16.16-.054.16-.215.16-.376-.054 0-.054-.107 0-.107.16.054.107-.107.16-.16.108-.215.055-.376.162-.537.107-.16.107-.267.16-.428.054-.215.054-.482.161-.697.054-.214.268-.375.054-.589 0 0 .053-.054.053-.107.16-.59.429-1.178.696-1.821 0-.054.055-.108.055-.108.053 0 .16.108.16-.053 0-.053.107-.108 0-.16-.054-.054 0-.161.053-.161.107 0 .107-.054.161-.108.107-.214.16-.375.16-.589 0-.054.054-.107.108-.107 0 .053.054.107.054.16h.053c.053-.16.107-.375.214-.482.16-.106.268-.214.268-.375 0-.053.054-.053.054-.107.16-.054.214-.214.214-.374.054-.215.268-.215.322-.376 0-.267.214-.482.321-.696.107-.214.268-.482.375-.697.054-.107.054-.267.214-.267.054 0 .054-.054.054-.054 0-.214.107-.268.214-.375.054-.053.16-.107.16-.214.108-.214.269-.375.483-.536-.16.428-.321.91-.429 1.34-.428 1.285-.803 2.625-1.178 3.91-.268.91-.536 1.822-.75 2.732-.268 1.34-.59 2.68-.75 4.072-.054.589-.16 1.232-.16 1.875-.055.59-.055 1.179-.055 1.767-.053.643.108 1.286.268 1.93.054.106.054.16.161.213l.322.322c.375.375.803.696 1.339.857.107 0 .267.107.375.054.107 0 .214-.16.375-.215.107-.053.053-.214 0-.32-.053-.162.053-.162.16-.162.162 0 .215 0 .162-.16 0-.108 0-.215.053-.322l.054-.054c.214.108.214 0 .214-.16-.054-.108 0-.16.053-.215.16-.428.268-.91.268-1.392v-1.286c0-.16 0-.375.107-.536-.107-.054-.053-.16-.053-.268.107-.375.16-.75.214-1.125 0-.16 0-.375.107-.535.214-.59.268-1.18.429-1.769.054-.213.107-.428.214-.588.054 0 .054-.054.054-.108.053-.375.214-.75.321-1.179 0-.053.054-.16.107-.214.054-.16.16-.321.16-.482.108-.214.162-.429.269-.697.268-.856.589-1.767.91-2.624.215-.696.43-1.34.643-1.983m-106.604.75c-.322 1.072-.696 2.143-.964 3.269-.107.321-.268.535-.429.75a43.71 43.71 0 0 0-1.661 2.625c-.697 1.285-1.446 2.464-2.357 3.589-.428.429-.857.857-1.34 1.232-.374.268-.535.16-.642-.268-.054-.107-.054-.214-.054-.321.107-.429.214-.858.268-1.232.054-.429.268-.75.375-1.126.054-.267.161-.535.215-.75.32-1.178.857-2.196 1.339-3.267.214-.483.535-.965.75-1.447.107-.16.214-.267.321-.428.322-.375.536-.804.75-1.232.375-.643.857-1.18 1.286-1.714.268-.322.697-.483.964-.805.375-.535.804-1.07 1.179-1.607.214-.32.482-.535.75-.857.107-.053.214-.16.428-.16-.429 1.285-.803 2.518-1.178 3.75m13.393 3.32c-.108.108-.214.215-.375.215.053-.482.214-.91.322-1.339.106-.59.482-.911 1.017-1.125.429-.214.697-.535 1.071-.804.59-.481 1.18-1.125 1.661-1.714.643-.857 1.554-1.714 2.518-2.143.911-.375 1.714-1.017 2.625-1.286.161-.053.322.215.536.108-.268.214-.429.482-.696.643-.482.375-.857.696-1.233 1.124-.589.75-1.393 1.34-2.143 1.93-.16.106-.32.267-.428.374-1.125 1.125-2.411 2.09-3.697 3.107a31.95 31.95 0 0 0-1.178.91m28.607 9.269c0-.107 0-.16.06-.16l.06.053c0 .054-.06.107-.12.107m26.143-11.143c-.59.857-1.232 1.66-1.929 2.357-.696.75-1.339 1.554-1.982 2.358a.733.733 0 0 0-.16.214c-.108.053-.161.107-.483.214.054-.59.161-.964.268-1.286.322-1.178.643-2.304 1.018-3.375.214-.535.536-1.018.804-1.5.267-.428.535-.857.804-1.232.267-.428.535-.857.75-1.34.16-.214.32-.374.535-.535.536-.428.91-1.071 1.34-1.607.535-.804 1.338-1.34 2.142-1.821.054 0 .107-.054.321-.108.054.375.054.59 0 .804 0 .696-.053 1.447-.053 2.196 0 .161-.107.322-.214.429-1.233 1.286-2.197 2.786-3.161 4.232m-9.267 30.817c-.414.516-.75.916-1.115 1.282-.445.398-.906.81-1.23 1.219-.274.317-.608.674-.998.912-.276.168-.59.358-.928.6l-.038.029a2.902 2.902 0 0 1-.532.377c-.26.119-.46.245-.65.37 5.25-8.365 10.088-14.493 13.271-18.21-.138.313-.29.61-.47.889l-.023.038a6.77 6.77 0 0 0-.343.77c-.05.128-.1.252-.15.367l-.805 1.47-.34.685c-.562 1.131-1.092 2.2-1.741 3.291-.345.571-1.375 2.17-1.346 2.343l-.02.035a17.58 17.58 0 0 1-.434.733c-.14.229-.277.452-.398.67l-.078.102c-.144.19-1.632 2.028-1.632 2.028m-6.293 3.834c0-.072-.001-.145-.005-.218a2.143 2.143 0 0 1 .194-.99s.217-.67.262-.969c.037-.183.106-.38.223-.638l.018-.044c.138-.381.231-.717.325-1.056.123-.441.376-.859.593-1.189.323-.446.595-1.005.841-1.514.265-.47.56-.903.944-1.443l1.197-1.626c.045-.14.168-.304.31-.494l.078-.103c.177-.175.353-.367.535-.563.19-.206.384-.418.59-.62.01-.008.019-.018.028-.027.174-.018 1.421-1.433 1.887-1.93.878-.926 3.936-3.249 4.18-3.453-3.118 3.544-6.434 7.736-12.2 16.877m-2.894-.81c.043-.436.082-.828.277-1.216.1-.272.2-.506.258-.82.055-.235.154-.469.3-.74.149-.35.251-.662.354-.974.154-.468.44-.891.768-1.312.328-.381.617-.884.906-1.385.332-.5.708-.96 1.13-1.455.046-.037.52-.729.704-.88.002-.039.841-.951 1.075-1.218.415-.338.832-.755 1.292-1.13a150.47 150.47 0 0 0 2.122-1.806 36.515 36.515 0 0 1 1.983-1.608c-.376.36-.75.727-1.12 1.117-.477.51-1.811 1.837-1.882 1.924-.219.215-.983 1.044-1.157 1.214l-.161.204c-.183.243-.739.943-.851 1.12a.851.851 0 0 0-.033.056c-.163.166-.544.847-.544.847l-.068.079a17.23 17.23 0 0 0-1.058 1.624c-.242.495-.49 1.007-.767 1.391-.283.427-.594.945-.764 1.558-.086.311-.169.606-.287.935-.15.336-.243.608-.3.903-.036.23-.096.418-.166.636l-.032.1c-.213.51-.303 1-.275 1.492.012.25-.014.526-.042.818a9.92 9.92 0 0 0-.046.633l-.048.272a1.55 1.55 0 0 0-.106.371c-.109.042-.85.287-1.035.48-.055.037-.561.145-.665.178l-.033.01a1.99 1.99 0 0 1-.004-.262c-.034-.239.017-.395-.018-.594-.033-.24.186-1.499.293-2.562m.363 4.48c.291-.077.944-.439.975-.442l.112-.024.029-.01c.003.268.046.587.206.895a7.489 7.489 0 0 1-.795-.066c-.206-.035-.367-.179-.527-.354m15.587-13.243c-.203.846-.825 2.211-1.169 2.949-.44.89-.913 1.645-1.395 2.495-.336.58-.802 1.073-1.137 1.613-.145.27-.333.5-.519.69-.371.379-.743.758-1.113 1.098-.416.377-.7.761-1.114 1.099-.46.375-3.716 2.25-3.85 2.283-.636.328-1.181.62-1.813.87-.183.11-.317.144-.456.256a2.996 2.996 0 0 1-.344.135l-.052-.065-.088-.11-.231-.71-.007-.048c-.01-.08-.008-.149-.005-.212.055-.017.109-.031.162-.043a3.312 3.312 0 0 0 1.365-.671l.09-.059c.19-.126.354-.234.587-.342.247-.125.483-.287.765-.523.294-.21.569-.376.835-.537.531-.324 1.994-1.896 2.402-2.26l.034-.032c.426-.428.808-.884 1.25-1.435l1.717-2.142.052-.08c.117-.213.252-.432.39-.657.157-.255.317-.517.472-.795.058-.084.976-1.732 1.335-2.328.675-1.133 1.24-2.272 1.786-3.373l.33-.663.804-1.47.02-.04c.062-.138.121-.287.181-.44a6.14 6.14 0 0 1 .272-.62c.139-.215.26-.44.372-.666 0 0-1.725 5.987-1.928 6.833m28.108-35.309c-.046.046-.086.14-.098.267-.076-.002-.116-.016-.116-.107.053-.16.16-.267.214-.428.108-.16.214-.322.375-.482-.054.268-.214.482-.375.75M185.97 27.777c-.162-.107-.43.054-.536.161-.322.375-.697.696-1.018 1.072a30.329 30.329 0 0 1-1.233 1.5c-.857 1.178-1.928 2.196-2.84 3.321-.91 1.071-1.82 2.143-2.677 3.268-.268.321-.482.696-.804 1.018-.59.536-1.232.964-1.928 1.393-.108.053-.161.053-.269-.054l-.16-.321c-.215-.482-.322-.965-.428-1.5-.108-.697-.322-1.393-.162-2.144-.107-.964 0-1.928.054-2.892 0-.108.053-.215 0-.321-.107-.108-.054-.322-.054-.483.107-.964.43-1.875.59-2.84 0-.16.107-.32.214-.427.857-.912 1.66-1.876 2.357-2.947.59-.91 1.34-1.821 1.554-2.947.321-.482.482-1.07.75-1.607.322-.535.642-1.017.964-1.553.59-.91 1.071-1.822 1.607-2.732.215-.43.536-.804.643-1.232.107-.215.054-.43.16-.643.162-.43.322-.91.483-1.34.375-.964.643-1.982.857-3 .108-.429.268-.803.375-1.232.16-.535.375-1.017.535-1.5.161-.429.215-.857.322-1.286.322-1.178.43-2.357.322-3.535-.107-.804-.322-1.447-.857-2.036-.375-.375-.804-.59-1.286-.75-.482-.16-.964-.054-1.447.054-.857.213-1.66.642-2.25 1.392-.482.59-.857 1.18-1.285 1.768-.697 1.072-1.34 2.143-1.822 3.322a152.812 152.812 0 0 0-3.107 8.25c-.375 1.07-.696 2.09-1.071 3.107-.429 1.34-.75 2.732-1.179 4.071-.107.536-.268 1.018-.375 1.554-.054.054 0 .16-.107.16-.107.054-.107-.053-.16-.053-.215-.214-.483-.428-.697-.643-.268-.375-.643-.429-1.071-.482-.59-.107-1.286.053-1.875.107-.215 0-.43.054-.59.214-.161.054-.375.161-.536.108-.321-.108-.642.053-.91.214a3.417 3.417 0 0 0-.75.429 4.979 4.979 0 0 0-1.768 1.393 32.84 32.84 0 0 0-1.943 2.678l-.093.117c-.964 1.178-1.714 2.464-2.625 3.643-.857 1.125-1.715 2.25-2.625 3.322a3.294 3.294 0 0 1-1.286 1.017c-.107-.16-.053-.321-.053-.482.107-.75.268-1.5.374-2.303.161-.857.269-1.715.429-2.572.054-.429.16-.803.268-1.232.16-1.018.482-1.982.804-2.947.16-.482.321-.964.374-1.5.055-.375.161-.643.269-.964.16-.536.267-1.125.428-1.66v-.323c0-.428-.16-.749-.322-1.124-.106-.214-.16-.536-.32-.75-.43-.428-.858-.858-1.447-1.018-.483-.16-.804-.268-1.126.214-.106.107-.214.107-.32 0a9.22 9.22 0 0 1-.804-.696c-.375-.482-1.018-.482-1.5-.804-.375.054-.697.054-1.018.268l-1.768 1.125a7.65 7.65 0 0 0-1.875 1.607c-.75.911-1.393 1.822-2.09 2.732-.32.43-.589.857-.91 1.34-.536.857-.964 1.821-1.5 2.678-.214.483-.482.91-.643 1.393-.428 1.232-.804 2.464-.964 3.804-.054.589-.161 1.232-.107 1.821 0 1.018.428 1.822.91 2.678.054.108.107.215.214.269.697.589 1.393 1.285 2.411 1.178.054 0 .161.054.215.054.375.053.696.16 1.071.053.59-.16 1.232-.16 1.768-.589.053-.053.107-.053.16-.053.536-.215.965-.59 1.393-.965a5.53 5.53 0 0 0 1.126-1.34c.16-.213.321-.374.535-.588.107.321.215.589.429.857.16.214.214.375.268.59.053.481.374.803.696 1.124.268.322.643.536 1.018.75l.803.321c.376.054.75 0 1.072-.16.214-.161.428-.322.643-.429.214-.053.321-.16.482-.267.375-.215.697-.483 1.072-.75.428-.322.91-.59 1.071-1.233 0-.053.053-.107.107-.107.268-.268.375-.589.536-.857.115-.198.242-.395.373-.59-.053.72-.086 1.428-.052 2.134.054.803.107 1.553.482 2.196.107.268.321.482.375.75.215.589.537 1.071 1.072 1.393.214.107.375.214.535.375.268.268.59.268.965.214.75-.107 1.5-.214 2.25-.428.107-.054.321-.054.267-.268 0-.107.108-.107.161-.16.644-.43 1.232-.965 1.661-1.608.161-.268.322-.483.483-.75.428-.536.857-1.125 1.232-1.714.375-.696.857-1.286 1.392-1.929.108.161.054.214.054.321 0 .482 0 1.018.268 1.447.053.054.053.16.053.214.16 1.125.59 2.197 1.232 3.054.536.75 1.18 1.393 2.25 1.554.054 0 .16.053.215.107.268.268.59.321.91.268.429-.054.858-.108 1.286-.054.322 0 .643-.16.964-.321.054 0 .161-.054.161-.108-.053-.16.107-.16.214-.214.215-.16.43-.214.644-.322.32-.053.588-.482.535-.75-.053-.16 0-.214.107-.267 1.018-.91 1.715-2.036 2.518-3.054.375-.482.696-1.072 1.072-1.554.32-.428.589-.91.91-1.393.429-.535.857-1.07 1.018-1.767.054-.375.428-.643.643-1.018.054-.053.16-.108.16-.214-.053-.269.162-.482.322-.697.375-.535.75-1.018 1.018-1.553.107-.215.268-.429.107-.59m-10.125-4.392c.429-1.126.857-2.304 1.34-3.375.106-.322.214-.59.32-.911.108-.322.269-.643.376-1.018.482-1.125.857-2.304 1.232-3.482.268-.697.536-1.34.75-2.036.16-.429.321-.911.429-1.393.107-.375.321-.642.482-1.018.642-1.232 1.124-2.571 1.553-3.857.161-.482.322-.91.483-1.34.16-.374.321-.75.428-1.124.054-.321.375-.536.482-.911.107.375.054.75 0 1.125-.107.696-.214 1.393-.321 2.143-.161.857-.375 1.768-.536 2.625-.268 1.285-.965 2.464-1.232 3.75-.322 1.179-.964 2.196-1.553 3.214-.375.804-.804 1.554-1.233 2.304-.214.375-.321.75-.482 1.125-.428.91-.91 1.714-1.393 2.57-.268.537-.643 1.073-.91 1.609-.054.214-.161.375-.268.535-.054 0-.054-.053-.108-.053l.161-.482m-24.322 1.724c-.322 1.071-.696 2.142-.964 3.268-.107.321-.268.535-.428.75a43.499 43.499 0 0 0-1.661 2.624c-.697 1.286-1.447 2.465-2.357 3.59-.43.429-.858.857-1.34 1.232-.374.268-.535.16-.643-.268-.053-.107-.053-.214-.053-.321.107-.429.214-.858.268-1.232.054-.429.268-.75.375-1.126.054-.267.16-.535.214-.75.321-1.178.857-2.196 1.34-3.267.214-.483.535-.965.75-1.447.107-.16.214-.267.32-.428.322-.375.536-.804.751-1.232.375-.643.857-1.18 1.286-1.714.268-.322.696-.483.964-.805.375-.535.803-1.07 1.178-1.607.215-.32.483-.535.75-.857.108-.053.215-.16.429-.16-.429 1.285-.803 2.518-1.179 3.75m18.644 2.132c-.215 1.072-.322 2.144-.429 3.162-.054.16-.054.267-.054.428 0 .697-.214 1.286-.696 1.875-.75.91-1.446 1.982-2.197 2.946-.428.536-.803 1.071-1.285 1.608-.268.374-.643.589-.965.91-.428.376-.803.75-1.285 1.072-.268.214-.322.214-.43-.107-.16-.376-.213-.75-.16-1.233.215-.91.215-1.875.483-2.839.16-.643.214-1.286.321-1.929.161-.643.268-1.285.535-1.874.215-.482.43-.912.644-1.34.214-.535.589-1.071.696-1.66.054-.108.107-.215.214-.322.429-.643.857-1.232 1.393-1.768.322-.428.536-.857.91-1.232.269-.214.537-.321.858-.268.107 0 .215.054.268.161.268.59.75 1.071 1.071 1.607.16.268.16.482.108.803"/></g></svg>